<svg version="1.1" id="Layer_1" xmlns="http://www.w3.org/2000/svg" xmlns:xlink="http://www.w3.org/1999/xlink" x="0px" y="0px"
	 width="100%" viewBox="0 0 512 512" enable-background="new 0 0 512 512" xml:space="preserve">
<path fill="#000000" opacity="1.000000" stroke="none" 
	d="
M0.999991,435.000000 
	C1.000000,290.412994 1.000000,145.826004 1.000000,1.000000 
	C117.689201,1.000000 234.378571,1.000000 351.632294,1.351369 
	C350.045593,3.431728 347.529602,4.860505 345.813202,6.947045 
	C341.017395,12.776982 336.552551,18.879145 331.583069,24.893250 
	C307.371826,15.448218 282.537476,11.352695 256.526062,11.074659 
	C243.519547,12.342448 230.860489,13.012965 218.446625,15.124833 
	C194.890656,19.132210 176.214111,31.807686 162.191711,50.761471 
	C148.382217,69.427475 142.673981,90.834236 144.102249,114.535522 
	C144.025253,148.306747 144.012131,181.617920 143.999741,214.929108 
	C143.999435,215.761826 143.901611,216.610931 144.027374,217.424866 
	C146.531097,233.629395 151.281128,249.054062 160.012207,263.077576 
	C169.455200,278.244568 181.369461,290.953400 196.939896,300.523743 
	C196.939438,314.988464 196.890427,328.991180 196.441910,342.997375 
	C189.806610,344.665405 183.585098,346.385712 177.332382,347.983978 
	C158.690750,352.748993 140.011963,357.370605 121.394379,362.227203 
	C100.311539,367.726929 79.245087,373.295929 58.233402,379.060394 
	C29.858278,386.844940 10.867523,404.352478 2.937486,433.138733 
	C2.733076,433.880737 1.665178,434.384888 0.999991,435.000000 
z"/>
<path fill="#000000" opacity="1.000000" stroke="none" 
	d="
M363.000000,0.999997 
	C412.962524,1.000000 462.925049,1.000000 513.000000,1.000000 
	C513.000000,145.354202 513.000000,289.708435 512.669067,434.830139 
	C511.901764,434.765564 511.285492,433.980072 511.055908,433.094391 
	C507.846222,420.710327 501.859100,409.950500 493.151001,400.509491 
	C481.095795,387.439728 465.486755,381.348846 448.896973,377.029541 
	C420.038055,369.515808 391.154877,362.095123 362.282318,354.633911 
	C347.243561,350.747650 332.205688,346.858124 317.093353,342.508362 
	C317.047119,328.055664 317.074951,314.064697 317.424622,299.936005 
	C329.612335,292.789490 339.615845,283.535919 347.670868,272.542694 
	C361.871063,253.162674 370.276947,231.542908 370.561951,207.086548 
	C384.721802,207.294968 398.278687,207.050735 411.441742,202.140762 
	C430.676086,194.966110 443.553711,176.804077 444.051849,156.621994 
	C444.503967,138.305237 439.108856,121.795441 430.135559,106.071159 
	C417.661926,84.213135 400.835236,66.439415 380.545135,51.789291 
	C374.078094,47.119865 367.509247,42.591366 361.287659,37.842781 
	C363.935364,34.749939 366.151733,31.695726 368.656067,28.899420 
	C374.142731,22.773098 375.916626,10.890285 366.633148,4.131114 
	C365.345032,3.193248 364.207336,2.048802 363.000000,0.999997 
z"/>
<path fill="#00ECCF" opacity="1.000000" stroke="none" 
	d="
M0.999991,435.468628 
	C1.665178,434.384888 2.733076,433.880737 2.937486,433.138733 
	C10.867523,404.352478 29.858278,386.844940 58.233402,379.060394 
	C79.245087,373.295929 100.311539,367.726929 121.394379,362.227203 
	C140.011963,357.370605 158.690750,352.748993 177.332382,347.983978 
	C183.585098,346.385712 189.806610,344.665405 196.600052,343.311829 
	C205.230591,347.375702 212.988159,352.276245 221.453156,354.601929 
	C233.014328,357.778320 245.114059,358.994568 256.987061,361.516541 
	C256.994110,412.321320 256.997040,462.660675 257.000000,513.000000 
	C173.979111,513.000000 90.958206,513.000000 7.802383,512.763123 
	C5.444973,510.684143 3.222494,508.842072 1.000008,507.000000 
	C1.000000,483.312439 1.000000,459.624878 0.999991,435.468628 
z"/>
<path fill="#00CAB1" opacity="1.000000" stroke="none" 
	d="
M257.468658,513.000000 
	C256.997040,462.660675 256.994110,412.321320 257.000702,361.402344 
	C257.010223,360.822693 257.012177,360.592621 257.442627,360.728699 
	C277.477081,360.666656 296.057434,356.313843 313.348450,346.962067 
	C314.890137,346.128235 315.906891,344.323761 317.167419,342.970093 
	C332.205688,346.858124 347.243561,350.747650 362.282318,354.633911 
	C391.154877,362.095123 420.038055,369.515808 448.896973,377.029541 
	C465.486755,381.348846 481.095795,387.439728 493.151001,400.509491 
	C501.859100,409.950500 507.846222,420.710327 511.055908,433.094391 
	C511.285492,433.980072 511.901764,434.765564 512.669067,435.298828 
	C513.000000,458.687561 513.000000,482.375122 512.746887,506.217773 
	C510.662506,508.581940 508.831268,510.790955 507.000000,513.000000 
	C423.979095,513.000000 340.958221,513.000000 257.468658,513.000000 
z"/>
<path fill="#97002C" opacity="1.000000" stroke="none" 
	d="
M362.541931,0.999997 
	C364.207336,2.048802 365.345032,3.193248 366.633148,4.131114 
	C375.916626,10.890285 374.142731,22.773098 368.656067,28.899420 
	C366.151733,31.695726 363.935364,34.749939 360.912476,37.838493 
	C350.810089,33.617832 341.383575,29.245846 331.957062,24.873863 
	C336.552551,18.879145 341.017395,12.776982 345.813202,6.947045 
	C347.529602,4.860505 350.045593,3.431728 352.098328,1.351369 
	C355.361298,1.000000 358.722565,1.000000 362.541931,0.999997 
z"/>
<path fill="#000000" opacity="1.000000" stroke="none" 
	d="
M1.000008,507.499451 
	C3.222494,508.842072 5.444973,510.684143 7.333726,512.763123 
	C5.086776,513.000000 3.173552,513.000000 1.000000,513.000000 
	C1.000000,511.336578 1.000000,509.667755 1.000008,507.499451 
z"/>
<path fill="#000000" opacity="1.000000" stroke="none" 
	d="
M507.499481,513.000000 
	C508.831268,510.790955 510.662506,508.581940 512.746887,506.686462 
	C513.000000,508.913239 513.000000,510.826447 513.000000,513.000000 
	C511.336578,513.000000 509.667755,513.000000 507.499481,513.000000 
z"/>
<path fill="#BE003B" opacity="1.000000" stroke="none" 
	d="
M331.583069,24.893250 
	C341.383575,29.245846 350.810089,33.617832 360.611786,37.994102 
	C367.509247,42.591366 374.078094,47.119865 380.545135,51.789291 
	C400.835236,66.439415 417.661926,84.213135 430.135559,106.071159 
	C439.108856,121.795441 444.503967,138.305237 444.051849,156.621994 
	C443.553711,176.804077 430.676086,194.966110 411.441742,202.140762 
	C398.278687,207.050735 384.721802,207.294968 370.262695,206.828705 
	C361.751007,206.385025 356.827362,202.133011 352.680267,195.895020 
	C349.111694,190.527237 344.808411,185.570297 340.358154,180.879333 
	C317.712921,157.009491 289.354065,144.437271 257.214600,139.269531 
	C257.156494,139.151138 257.020660,138.925034 257.015320,138.461258 
	C257.001434,95.707718 256.992828,53.417953 256.984253,11.128187 
	C282.537476,11.352695 307.371826,15.448218 331.583069,24.893250 
z"/>
<path fill="#FFE4C1" opacity="1.000000" stroke="none" 
	d="
M257.020660,138.925034 
	C257.020660,138.925034 257.156494,139.151138 257.154358,139.776459 
	C257.091797,164.882645 257.031433,189.363510 256.586365,213.940857 
	C252.310837,215.951706 247.448395,216.973846 244.714600,219.950790 
	C237.065979,228.279663 233.506409,229.723785 222.638809,226.085068 
	C214.580475,223.386948 206.209946,227.054321 203.290939,234.561951 
	C200.313904,242.218826 203.806564,250.578583 211.655685,253.938492 
	C225.412521,259.827271 239.066193,259.480743 252.526321,252.830627 
	C253.944473,252.129990 255.462021,251.630493 256.949768,251.503693 
	C256.952911,273.623535 256.939758,295.277344 256.475098,316.947144 
	C250.256302,316.449493 244.463821,316.129669 238.726593,315.384521 
	C223.648499,313.426300 210.144348,307.062134 196.891342,300.061737 
	C181.369461,290.953400 169.455200,278.244568 160.012207,263.077576 
	C151.281128,249.054062 146.531097,233.629395 144.027374,217.424866 
	C143.901611,216.610931 143.999435,215.761826 143.999741,214.929108 
	C144.012131,181.617920 144.025253,148.306747 144.405670,114.817368 
	C144.930908,118.124672 145.031601,121.613869 145.257095,125.094978 
	C145.996506,136.510178 152.981934,142.561218 164.163620,140.831406 
	C195.046539,136.053802 225.960968,134.361740 257.020660,138.925034 
z"/>
<path fill="#FF193D" opacity="1.000000" stroke="none" 
	d="
M257.015320,138.461258 
	C225.960968,134.361740 195.046539,136.053802 164.163620,140.831406 
	C152.981934,142.561218 145.996506,136.510178 145.257095,125.094978 
	C145.031601,121.613869 144.930908,118.124672 144.469635,114.357338 
	C142.673981,90.834236 148.382217,69.427475 162.191711,50.761471 
	C176.214111,31.807686 194.890656,19.132210 218.446625,15.124833 
	C230.860489,13.012965 243.519547,12.342448 256.526062,11.074659 
	C256.992828,53.417953 257.001434,95.707718 257.015320,138.461258 
z"/>
<path fill="#FCD1A3" opacity="1.000000" stroke="none" 
	d="
M196.939896,300.523743 
	C210.144348,307.062134 223.648499,313.426300 238.726593,315.384521 
	C244.463821,316.129669 250.256302,316.449493 256.510529,316.980835 
	C256.997467,316.998505 257.066498,317.064758 257.045502,317.526428 
	C257.020386,332.189575 257.016266,346.391113 257.012177,360.592621 
	C257.012177,360.592621 257.010223,360.822693 256.996582,360.936890 
	C245.114059,358.994568 233.014328,357.778320 221.453156,354.601929 
	C212.988159,352.276245 205.230591,347.375702 196.999573,343.308350 
	C196.890427,328.991180 196.939438,314.988464 196.939896,300.523743 
z"/>
<path fill="#FDD1A3" opacity="1.000000" stroke="none" 
	d="
M256.971069,213.844376 
	C257.031433,189.363510 257.091797,164.882645 257.212463,139.894852 
	C289.354065,144.437271 317.712921,157.009491 340.358154,180.879333 
	C344.808411,185.570297 349.111694,190.527237 352.680267,195.895020 
	C356.827362,202.133011 361.751007,206.385025 369.800903,206.852631 
	C370.276947,231.542908 361.871063,253.162674 347.670868,272.542694 
	C339.615845,283.535919 329.612335,292.789490 317.102051,300.060608 
	C298.185944,311.314636 278.539886,317.430939 257.066498,317.064758 
	C257.066498,317.064758 256.997467,316.998505 256.962036,316.964844 
	C256.939758,295.277344 256.952911,273.623535 257.002136,251.381714 
	C257.038208,250.793671 256.956726,250.540939 257.260193,250.755325 
	C272.038483,259.207184 286.997986,260.701599 302.451050,253.999786 
	C309.885773,250.775467 313.429871,243.359833 311.278534,236.080490 
	C308.626373,227.106461 299.862457,222.886719 290.657410,226.151657 
	C280.819336,229.641098 276.029785,228.204269 269.921997,220.199631 
	C266.719940,216.003098 262.579376,213.519440 257.028564,214.125336 
	C257.022675,214.029449 256.971069,213.844376 256.971069,213.844376 
z"/>
<path fill="#FEBB85" opacity="1.000000" stroke="none" 
	d="
M257.045502,317.526428 
	C278.539886,317.430939 298.185944,311.314636 316.780212,300.198364 
	C317.074951,314.064697 317.047119,328.055664 317.093353,342.508362 
	C315.906891,344.323761 314.890137,346.128235 313.348450,346.962067 
	C296.057434,356.313843 277.477081,360.666656 257.442627,360.728699 
	C257.016266,346.391113 257.020386,332.189575 257.045502,317.526428 
z"/>
<path fill="#02357C" opacity="1.000000" stroke="none" 
	d="
M256.985840,250.915665 
	C255.462021,251.630493 253.944473,252.129990 252.526321,252.830627 
	C239.066193,259.480743 225.412521,259.827271 211.655685,253.938492 
	C203.806564,250.578583 200.313904,242.218826 203.290939,234.561951 
	C206.209946,227.054321 214.580475,223.386948 222.638809,226.085068 
	C233.506409,229.723785 237.065979,228.279663 244.714600,219.950790 
	C247.448395,216.973846 252.310837,215.951706 256.586365,213.940857 
	C256.971069,213.844376 257.022675,214.029449 257.017822,214.580597 
	C256.994202,226.934799 256.975464,238.737869 256.956726,250.540939 
	C256.956726,250.540939 257.038208,250.793671 256.985840,250.915665 
z"/>
<path fill="#021838" opacity="1.000000" stroke="none" 
	d="
M257.260193,250.755325 
	C256.975464,238.737869 256.994202,226.934799 257.023682,214.676483 
	C262.579376,213.519440 266.719940,216.003098 269.921997,220.199631 
	C276.029785,228.204269 280.819336,229.641098 290.657410,226.151657 
	C299.862457,222.886719 308.626373,227.106461 311.278534,236.080490 
	C313.429871,243.359833 309.885773,250.775467 302.451050,253.999786 
	C286.997986,260.701599 272.038483,259.207184 257.260193,250.755325 
z"/>
</svg>