<svg version="1.1" id="Layer_1" xmlns="http://www.w3.org/2000/svg" xmlns:xlink="http://www.w3.org/1999/xlink" x="0px" y="0px"
	 width="100%" viewBox="0 0 512 512" enable-background="new 0 0 512 512" xml:space="preserve">
<path fill="#000000" opacity="1.000000" stroke="none" 
	d="
M1.000000,195.000000 
	C1.000000,130.000000 1.000000,65.500000 1.000000,1.000000 
	C171.666672,1.000000 342.333344,1.000000 513.000000,1.000000 
	C513.000000,171.666672 513.000000,342.333344 513.000000,513.000000 
	C342.333344,513.000000 171.666672,513.000000 1.000000,513.000000 
	C1.000000,407.166656 1.000000,301.333344 1.000000,195.000000 
M320.984985,41.144512 
	C321.035797,29.791176 315.138367,24.685461 302.330627,24.994411 
	C294.183197,25.190945 288.662354,32.321999 289.012054,42.784584 
	C289.658051,45.156467 290.304077,47.528355 290.207947,49.988270 
	C286.822113,48.168747 283.140381,46.741116 280.109131,44.452045 
	C272.709595,38.864254 265.930359,32.417488 258.327209,27.144444 
	C240.766769,14.965658 221.670517,7.381091 199.683090,8.927588 
	C187.263687,9.801114 176.475952,14.199546 167.214554,22.326067 
	C155.052902,32.997448 147.047607,46.268093 143.010559,62.826241 
	C142.340622,71.570221 141.575012,80.308624 141.065231,89.061928 
	C140.930740,91.371109 141.586197,93.726288 141.988983,96.919716 
	C144.048080,105.945938 146.107178,114.972160 148.017929,124.769371 
	C149.661072,128.902420 151.304230,133.035461 152.966263,138.083694 
	C153.024582,144.717224 153.082901,151.350739 153.026260,158.918442 
	C153.006317,169.304108 152.986359,179.689774 152.116180,189.987488 
	C142.121460,187.692551 134.750290,188.536652 129.400909,196.851898 
	C123.234879,206.436584 124.217079,216.534439 126.153214,226.571030 
	C128.545319,238.971237 140.985397,255.179779 155.356323,253.121658 
	C155.941589,254.367188 156.533356,255.626526 156.736542,257.621887 
	C155.394394,268.333954 153.364182,278.823547 146.401230,288.290283 
	C145.398682,289.564697 144.597824,291.095490 143.359238,292.069855 
	C137.500565,296.678711 131.522247,301.135498 124.963043,305.880585 
	C114.464455,314.525970 108.807465,325.919159 106.038834,339.843994 
	C105.694138,341.943726 105.231888,344.031891 105.024109,346.145081 
	C103.823303,358.356903 100.445381,369.681702 91.322968,379.258270 
	C84.386406,384.058777 77.449844,388.859283 69.870728,393.888397 
	C62.877354,397.583557 57.260998,402.648193 53.306820,410.366455 
	C50.076904,418.168121 47.477932,426.104980 47.992317,434.726227 
	C48.395760,441.488098 48.774891,448.251373 48.995544,455.819458 
	C48.670269,456.913849 48.147453,457.990967 48.049786,459.105286 
	C46.867451,472.594543 41.682415,484.268005 31.807493,493.554749 
	C27.490610,497.614532 22.490864,500.948151 17.514545,504.835480 
	C36.180092,504.835480 54.585190,504.835480 73.920380,504.967804 
	C82.277466,504.924072 90.634552,504.880371 99.851700,504.963623 
	C101.589371,504.932800 103.327049,504.901978 105.991974,504.987305 
	C121.977127,504.936096 137.962280,504.884857 154.882858,504.967133 
	C218.118835,504.976471 281.354797,504.989594 344.590790,504.988007 
	C349.746246,504.987885 354.901703,504.887177 360.979889,504.975586 
	C372.948822,504.940643 384.917725,504.905701 397.832794,504.973053 
	C405.524567,504.922913 413.216339,504.872772 421.848389,504.956512 
	C439.230133,504.924286 456.611847,504.892090 474.927155,504.955353 
	C481.944702,504.955353 488.962250,504.955353 497.258759,504.955353 
	C487.218597,498.917572 479.496216,492.412994 473.930725,483.494904 
	C467.685577,473.487762 465.400330,462.464294 465.079773,450.940735 
	C464.823639,441.732483 465.957123,432.384888 464.752167,423.328186 
	C463.088715,410.825439 456.457153,400.932983 445.147217,394.456726 
	C438.323639,390.549438 431.791992,386.132294 424.996826,381.073181 
	C424.578400,377.861298 424.705750,374.453735 423.637756,371.474701 
	C420.604553,363.013641 417.238403,354.660645 413.677490,346.405640 
	C412.258057,343.115021 409.983429,340.193329 407.476898,336.665588 
	C403.743835,322.450775 397.203583,309.694061 384.140320,302.293427 
	C367.637848,292.944397 359.318146,279.233643 357.931183,260.722748 
	C357.858063,259.746613 357.011047,258.828400 356.685028,257.156952 
	C357.135956,255.807281 357.586914,254.457611 358.924561,253.005295 
	C370.299530,254.282150 376.681824,247.023499 382.458099,239.006805 
	C388.575806,230.516388 389.695221,220.711884 388.973389,210.630676 
	C387.812714,194.420059 378.000275,185.069946 360.989258,189.130554 
	C361.010071,179.135956 361.030853,169.141357 361.762054,159.006088 
	C367.635376,153.717957 374.403778,149.112152 379.112030,142.935898 
	C383.224030,137.541840 385.016388,130.379456 388.223450,123.227608 
	C389.317261,113.671417 390.429932,104.113823 386.007660,94.177376 
	C380.407623,76.060791 367.902771,65.254883 349.270813,59.814320 
	C337.486511,56.017826 325.207489,56.862453 313.224701,55.273399 
	C318.408752,52.365738 321.459747,48.235561 320.984985,41.144512 
z"/>
<path fill="#F8DBCE" opacity="1.000000" stroke="none" 
	d="
M157.125122,256.885864 
	C156.533356,255.626526 155.941589,254.367188 155.356323,253.121658 
	C140.985397,255.179779 128.545319,238.971237 126.153214,226.571030 
	C124.217079,216.534439 123.234879,206.436584 129.400909,196.851898 
	C134.750290,188.536652 142.121460,187.692551 152.549469,190.366653 
	C153.623428,191.139465 154.574402,192.032623 154.860229,191.855087 
	C168.840546,183.169922 181.283279,172.888428 189.549072,157.890228 
	C191.901443,152.447479 193.986969,147.209717 196.521713,141.972198 
	C203.535400,142.642639 210.096558,143.347275 216.664978,143.975906 
	C231.121536,145.359543 245.595016,146.578415 260.037323,148.095764 
	C281.041229,150.302521 302.023743,152.713120 323.035614,155.364532 
	C324.092224,157.342224 325.128571,158.992188 326.018799,160.983459 
	C323.752838,164.212051 321.845917,167.290237 319.465607,169.943832 
	C315.467987,174.400406 311.169220,178.586807 306.581116,182.900604 
	C299.270081,183.164734 292.361176,183.231476 285.486755,183.752945 
	C282.600922,183.971832 280.217896,185.798141 281.306580,189.165512 
	C282.245728,192.070465 284.672882,192.331848 287.469574,191.450241 
	C289.506165,190.808228 291.704834,190.680420 293.942505,190.682129 
	C293.125275,193.437698 292.831543,196.474701 291.164978,198.127121 
	C280.612488,208.589905 269.756104,218.746231 258.601990,229.002594 
	C251.481537,229.101791 253.313248,234.177246 252.633728,238.032867 
	C250.764557,239.313110 249.113861,240.427658 247.728790,241.808624 
	C229.009766,260.471924 210.388962,279.234467 191.558411,297.784210 
	C189.218918,300.088806 185.814590,301.312408 182.608643,302.880371 
	C171.152115,288.964111 163.042740,273.527191 157.125122,256.885864 
M208.974792,221.084930 
	C209.685287,226.963028 212.119568,229.227692 217.506790,229.022461 
	C222.462265,228.833679 224.921768,226.086670 225.019699,220.565125 
	C225.063751,218.081497 225.077789,215.595139 225.016159,213.112244 
	C224.882721,207.736938 222.265198,205.045517 217.187180,204.976257 
	C211.796921,204.902756 209.109375,207.585999 208.982910,213.231461 
	C208.931000,215.549103 208.973557,217.868851 208.974792,221.084930 
M231.489655,184.975159 
	C222.731018,180.832901 213.726685,181.115417 204.808411,184.056671 
	C203.227829,184.577957 201.225174,187.423508 201.416229,188.944733 
	C201.787292,191.899323 204.414764,191.793518 207.264954,191.601120 
	C213.785751,191.160889 220.393799,191.074203 226.898010,191.635941 
	C231.764160,192.056198 233.528717,190.493790 231.489655,184.975159 
M153.002640,225.426270 
	C153.002640,219.054047 153.002640,212.681839 153.002640,206.124176 
	C146.596603,207.581192 142.801743,213.322495 143.005905,219.918030 
	C143.225861,227.024673 147.413712,233.347916 153.002441,234.362320 
	C153.002441,231.656204 153.002441,229.025650 153.002640,225.426270 
z"/>
<path fill="#613023" opacity="1.000000" stroke="none" 
	d="
M356.524292,257.883240 
	C357.011047,258.828400 357.858063,259.746613 357.931183,260.722748 
	C359.318146,279.233643 367.637848,292.944397 384.140320,302.293427 
	C397.203583,309.694061 403.743835,322.450775 407.745667,337.264465 
	C403.808472,348.670624 399.862274,359.588928 395.306641,370.246765 
	C392.179718,377.562042 392.420074,384.470581 395.808136,391.414124 
	C397.408722,394.694397 399.322113,397.822021 401.021759,401.435120 
	C399.914215,411.193085 398.989044,420.548798 397.802612,429.871277 
	C397.066589,435.654541 395.934174,441.387329 394.662231,447.016113 
	C392.953278,444.903625 391.561798,442.917847 390.099579,440.587891 
	C384.022369,433.079132 378.015930,425.914490 372.008545,418.382935 
	C371.609985,416.794495 371.519501,415.325500 370.766205,414.390564 
	C364.540375,406.664124 358.170135,399.054352 351.885284,391.375153 
	C341.727112,378.963348 331.669983,366.468170 321.435211,354.120056 
	C315.118683,346.499237 308.551849,339.085846 302.325562,331.308716 
	C306.403229,327.867035 310.390747,324.847931 314.079254,321.499420 
	C333.526978,303.844543 347.650085,282.607574 356.524292,257.883240 
z"/>
<path fill="#FFD6FF" opacity="1.000000" stroke="none" 
	d="
M349.997742,60.166588 
	C367.902771,65.254883 380.407623,76.060791 385.640686,94.631439 
	C382.656464,95.390343 380.039429,95.959366 377.421936,95.961609 
	C298.907623,96.028938 220.393265,96.040237 141.878922,96.060349 
	C141.586197,93.726288 140.930740,91.371109 141.065231,89.061928 
	C141.575012,80.308624 142.340622,71.570221 143.546661,62.412903 
	C210.708725,61.999706 277.334717,62.015907 343.960510,61.923016 
	C345.973724,61.920208 347.985382,60.777721 349.997742,60.166588 
z"/>
<path fill="#FFD1FF" opacity="1.000000" stroke="none" 
	d="
M141.933960,96.490036 
	C220.393265,96.040237 298.907623,96.028938 377.421936,95.961609 
	C380.039429,95.959366 382.656464,95.390343 385.695618,95.022949 
	C390.429932,104.113823 389.317261,113.671417 387.570435,123.613464 
	C307.333710,123.999008 227.749985,123.998695 148.166275,123.998383 
	C146.107178,114.972160 144.048080,105.945938 141.933960,96.490036 
z"/>
<path fill="#FFDDFF" opacity="1.000000" stroke="none" 
	d="
M349.634277,59.990452 
	C347.985382,60.777721 345.973724,61.920208 343.960510,61.923016 
	C277.334717,62.015907 210.708725,61.999706 143.624695,61.999207 
	C147.047607,46.268093 155.052902,32.997448 167.214554,22.326067 
	C176.475952,14.199546 187.263687,9.801114 199.683090,8.927588 
	C221.670517,7.381091 240.766769,14.965658 258.327209,27.144444 
	C265.930359,32.417488 272.709595,38.864254 280.109131,44.452045 
	C283.140381,46.741116 286.822113,48.168747 290.787476,50.233719 
	C298.616241,52.306114 305.865479,54.133060 313.114685,55.960007 
	C325.207489,56.862453 337.486511,56.017826 349.634277,59.990452 
z"/>
<path fill="#FFCCFF" opacity="1.000000" stroke="none" 
	d="
M148.092102,124.383881 
	C227.749985,123.998695 307.333710,123.999008 387.375488,123.998825 
	C385.016388,130.379456 383.224030,137.541840 379.112030,142.935898 
	C374.403778,149.112152 367.635376,153.717957 360.990509,158.982941 
	C347.817780,157.652130 335.416565,156.344467 323.015381,155.036804 
	C302.023743,152.713120 281.041229,150.302521 260.037323,148.095764 
	C245.595016,146.578415 231.121536,145.359543 216.664978,143.975906 
	C210.096558,143.347275 203.535400,142.642639 196.188416,141.739014 
	C181.253052,140.059891 167.100204,138.614197 152.947372,137.168518 
	C151.304230,133.035461 149.661072,128.902420 148.092102,124.383881 
z"/>
<path fill="#F4CDC0" opacity="1.000000" stroke="none" 
	d="
M356.604675,257.520081 
	C347.650085,282.607574 333.526978,303.844543 314.079254,321.499420 
	C310.390747,324.847931 306.403229,327.867035 302.039062,331.425903 
	C298.649475,333.872345 295.774567,335.930939 292.547028,338.035889 
	C283.104431,341.560852 274.241913,346.056305 264.844025,348.158905 
	C258.626770,349.549927 251.641434,347.507660 245.148453,346.704834 
	C246.556335,345.079865 247.786240,343.722961 249.079437,342.429352 
	C284.054657,307.443329 319.005798,272.433044 354.052612,237.518860 
	C358.871155,232.718582 361.988464,227.671097 361.108948,220.460587 
	C360.528412,215.701187 361.002014,210.813217 361.376709,205.990707 
	C364.093689,207.845688 367.275635,209.221527 368.627808,211.626251 
	C373.079742,219.543686 370.797516,228.237152 363.688843,234.260071 
	C362.143829,235.569107 360.670471,237.531937 360.215424,239.443878 
	C359.150543,243.917877 358.723297,248.543625 358.037842,253.107941 
	C357.586914,254.457611 357.135956,255.807281 356.604675,257.520081 
z"/>
<path fill="#623024" opacity="1.000000" stroke="none" 
	d="
M156.930832,257.253876 
	C163.042740,273.527191 171.152115,288.964111 182.711487,303.203613 
	C192.129395,314.582947 201.807541,324.781555 214.025391,332.743439 
	C216.523788,334.988312 218.805588,336.995514 220.993378,339.418091 
	C220.262024,346.879761 219.624695,353.926056 218.528748,360.986023 
	C215.134979,360.999725 212.199829,360.999725 209.167831,360.999725 
	C209.167831,368.057251 209.167831,374.526428 209.093216,381.450806 
	C208.984344,385.592499 208.950073,389.279053 208.489227,393.001709 
	C206.922440,393.115234 205.782242,393.192627 204.282013,393.188965 
	C201.619873,393.345917 199.317749,393.583984 197.002426,393.455505 
	C196.771820,392.295105 196.667572,391.447571 196.320297,390.715302 
	C189.629807,376.607971 182.883484,362.527069 176.208267,348.412537 
	C172.375931,340.309204 168.763702,332.100311 164.848404,324.037994 
	C158.975494,311.944550 152.923340,299.938110 146.947403,287.894684 
	C153.364182,278.823547 155.394394,268.333954 156.930832,257.253876 
z"/>
<path fill="#613023" opacity="1.000000" stroke="none" 
	d="
M425.129181,381.944244 
	C431.791992,386.132294 438.323639,390.549438 445.147217,394.456726 
	C456.457153,400.932983 463.088715,410.825439 464.752167,423.328186 
	C465.957123,432.384888 464.823639,441.732483 465.079773,450.940735 
	C465.400330,462.464294 467.685577,473.487762 473.930725,483.494904 
	C479.496216,492.412994 487.218597,498.917572 497.258759,504.955353 
	C488.962250,504.955353 481.944702,504.955353 474.417328,504.568085 
	C473.084869,502.765594 472.432556,501.212311 471.414001,499.955963 
	C456.885162,482.034729 442.347534,464.120026 427.678009,446.314209 
	C426.192169,444.510712 423.838928,443.421844 421.703552,441.626038 
	C419.970917,427.847900 418.422974,414.445038 417.036285,400.730621 
	C419.841431,394.260803 422.485291,388.102509 425.129181,381.944244 
z"/>
<path fill="#1E8FC5" opacity="1.000000" stroke="none" 
	d="
M360.057159,504.833191 
	C354.901703,504.887177 349.746246,504.987885 344.590790,504.988007 
	C281.354797,504.989594 218.118835,504.976471 154.347473,504.548340 
	C152.584518,499.753937 151.356949,495.378265 150.534149,490.937439 
	C153.225235,490.581512 155.511383,490.038300 157.797882,490.036743 
	C223.872849,489.991272 289.947845,489.988556 356.022797,490.042358 
	C358.638733,490.044495 361.254181,490.668579 363.900024,491.394775 
	C362.639191,496.135529 361.348175,500.484375 360.057159,504.833191 
z"/>
<path fill="#743827" opacity="1.000000" stroke="none" 
	d="
M106.156105,339.018158 
	C108.807465,325.919159 114.464455,314.525970 125.587082,306.009613 
	C130.936386,316.020325 135.694366,325.886536 140.376373,335.788666 
	C143.994598,343.440948 147.452606,351.169220 151.097061,358.808746 
	C157.739838,372.733398 164.468079,386.617279 170.891495,400.722595 
	C162.120407,405.631958 153.618515,410.336975 144.802155,414.886139 
	C143.739853,413.655334 142.827042,412.659363 142.268585,411.493652 
	C131.231598,388.455261 120.255318,365.387726 109.179756,342.367950 
	C108.554054,341.067505 107.181206,340.126465 106.156105,339.018158 
z"/>
<path fill="#6A3425" opacity="1.000000" stroke="none" 
	d="
M171.160675,400.518188 
	C164.468079,386.617279 157.739838,372.733398 151.097061,358.808746 
	C147.452606,351.169220 143.994598,343.440948 140.376373,335.788666 
	C135.694366,325.886536 130.936386,316.020325 125.898849,305.892578 
	C131.522247,301.135498 137.500565,296.678711 143.359238,292.069855 
	C144.597824,291.095490 145.398682,289.564697 146.674316,288.092468 
	C152.923340,299.938110 158.975494,311.944550 164.848404,324.037994 
	C168.763702,332.100311 172.375931,340.309204 176.208267,348.412537 
	C182.883484,362.527069 189.629807,376.607971 196.320297,390.715302 
	C196.667572,391.447571 196.771820,392.295105 196.604736,393.536713 
	C191.520706,395.062592 186.821167,396.140747 181.729828,397.171295 
	C177.945572,398.255219 174.553116,399.386688 171.160675,400.518188 
z"/>
<path fill="#7E3D29" opacity="1.000000" stroke="none" 
	d="
M106.097473,339.431091 
	C107.181206,340.126465 108.554054,341.067505 109.179756,342.367950 
	C120.255318,365.387726 131.231598,388.455261 142.268585,411.493652 
	C142.827042,412.659363 143.739853,413.655334 144.668579,415.196564 
	C139.886505,421.076569 134.923523,426.490326 129.655563,432.062988 
	C127.363197,435.064941 125.375801,437.907959 123.227295,440.388062 
	C115.716629,424.872345 108.473244,409.666565 100.960785,394.594940 
	C98.278740,389.214142 94.945274,384.158112 91.909157,378.953827 
	C100.445381,369.681702 103.823303,358.356903 105.024109,346.145081 
	C105.231888,344.031891 105.694138,341.943726 106.097473,339.431091 
z"/>
<path fill="#90452D" opacity="1.000000" stroke="none" 
	d="
M53.895737,409.951569 
	C57.260998,402.648193 62.877354,397.583557 70.515610,393.993622 
	C78.421600,409.161346 85.711014,424.210266 92.933266,439.291382 
	C97.298569,448.406708 101.488487,457.606689 105.924210,466.687103 
	C106.876503,468.636566 108.548470,470.234467 109.919144,472.385864 
	C107.402138,483.335449 104.528015,493.843750 105.064720,504.871155 
	C103.327049,504.901978 101.589371,504.932800 99.414688,504.527039 
	C93.913261,492.908905 88.920624,481.694183 83.766998,470.553925 
	C76.651985,455.173767 69.516151,439.801361 62.173973,424.529144 
	C59.758442,419.504639 56.674202,414.801605 53.895737,409.951569 
z"/>
<path fill="#88422C" opacity="1.000000" stroke="none" 
	d="
M109.888908,471.994293 
	C108.548470,470.234467 106.876503,468.636566 105.924210,466.687103 
	C101.488487,457.606689 97.298569,448.406708 92.933266,439.291382 
	C85.711014,424.210266 78.421600,409.161346 70.836884,393.879333 
	C77.449844,388.859283 84.386406,384.058777 91.616058,379.106049 
	C94.945274,384.158112 98.278740,389.214142 100.960785,394.594940 
	C108.473244,409.666565 115.716629,424.872345 123.105789,440.691162 
	C119.344994,450.108795 115.544579,458.860443 111.507523,467.863892 
	C110.810219,469.408569 110.349564,470.701416 109.888908,471.994293 
z"/>
<path fill="#97482F" opacity="1.000000" stroke="none" 
	d="
M53.601280,410.158997 
	C56.674202,414.801605 59.758442,419.504639 62.173973,424.529144 
	C69.516151,439.801361 76.651985,455.173767 83.766998,470.553925 
	C88.920624,481.694183 93.913261,492.908905 98.984665,504.463562 
	C90.634552,504.880371 82.277466,504.924072 73.457253,504.520691 
	C72.557587,502.501709 72.330841,500.832062 71.651390,499.373322 
	C66.129868,487.519043 60.612797,475.660736 54.883671,463.906372 
	C53.350346,460.760468 51.090912,457.968506 49.164822,455.014038 
	C48.774891,448.251373 48.395760,441.488098 47.992317,434.726227 
	C47.477932,426.104980 50.076904,418.168121 53.601280,410.158997 
z"/>
<path fill="#623024" opacity="1.000000" stroke="none" 
	d="
M421.888245,442.001343 
	C423.838928,443.421844 426.192169,444.510712 427.678009,446.314209 
	C442.347534,464.120026 456.885162,482.034729 471.414001,499.955963 
	C472.432556,501.212311 473.084869,502.765594 473.950562,504.520325 
	C456.611847,504.892090 439.230133,504.924286 421.404144,504.480438 
	C422.260498,493.619080 423.561096,483.233826 424.885620,472.430542 
	C423.902466,462.008789 422.895355,452.005066 421.888245,442.001343 
z"/>
<path fill="#FFCCFF" opacity="1.000000" stroke="none" 
	d="
M109.919144,472.385864 
	C110.349564,470.701416 110.810219,469.408569 111.795547,468.206909 
	C119.063728,468.532043 125.809517,468.714874 132.550034,469.015625 
	C138.305984,469.272430 144.055878,469.664642 149.845001,470.413879 
	C149.648529,474.889069 149.415497,478.947327 149.127686,483.407318 
	C149.425049,486.206879 149.777191,488.604767 150.129364,491.002625 
	C151.356949,495.378265 152.584518,499.753937 153.879761,504.481598 
	C137.962280,504.884857 121.977127,504.936096 105.528351,504.929230 
	C104.528015,493.843750 107.402138,483.335449 109.919144,472.385864 
z"/>
<path fill="#DDCD9A" opacity="1.000000" stroke="none" 
	d="
M425.062988,381.508728 
	C422.485291,388.102509 419.841431,394.260803 416.578064,400.720947 
	C411.003662,401.021484 406.048737,401.020142 401.093781,401.018829 
	C399.322113,397.822021 397.408722,394.694397 395.808136,391.414124 
	C392.420074,384.470581 392.179718,377.562042 395.306641,370.246765 
	C399.862274,359.588928 403.808472,348.670624 408.056274,337.483521 
	C409.983429,340.193329 412.258057,343.115021 413.677490,346.405640 
	C417.238403,354.660645 420.604553,363.013641 423.637756,371.474701 
	C424.705750,374.453735 424.578400,377.861298 425.062988,381.508728 
z"/>
<path fill="#F8DBCE" opacity="1.000000" stroke="none" 
	d="
M358.481201,253.056610 
	C358.723297,248.543625 359.150543,243.917877 360.215424,239.443878 
	C360.670471,237.531937 362.143829,235.569107 363.688843,234.260071 
	C370.797516,228.237152 373.079742,219.543686 368.627808,211.626251 
	C367.275635,209.221527 364.093689,207.845688 361.376038,205.526596 
	C360.960846,200.925980 360.919434,196.797379 360.898529,192.344528 
	C360.957306,191.372131 360.995544,190.723984 361.033813,190.075836 
	C378.000275,185.069946 387.812714,194.420059 388.973389,210.630676 
	C389.695221,220.711884 388.575806,230.516388 382.458099,239.006805 
	C376.681824,247.023499 370.299530,254.282150 358.481201,253.056610 
z"/>
<path fill="#A04C30" opacity="1.000000" stroke="none" 
	d="
M49.080185,455.416748 
	C51.090912,457.968506 53.350346,460.760468 54.883671,463.906372 
	C60.612797,475.660736 66.129868,487.519043 71.651390,499.373322 
	C72.330841,500.832062 72.557587,502.501709 72.992203,504.454529 
	C54.585190,504.835480 36.180092,504.835480 17.514545,504.835480 
	C22.490864,500.948151 27.490610,497.614532 31.807493,493.554749 
	C41.682415,484.268005 46.867451,472.594543 48.049786,459.105286 
	C48.147453,457.990967 48.670269,456.913849 49.080185,455.416748 
z"/>
<path fill="#FFCCFF" opacity="1.000000" stroke="none" 
	d="
M360.518524,504.904388 
	C361.348175,500.484375 362.639191,496.135529 364.019592,490.957977 
	C364.115967,487.430115 364.122925,484.730957 364.454773,481.806396 
	C364.877441,479.719910 364.975250,477.858856 365.537140,475.998291 
	C375.018707,475.999634 384.036224,476.000427 393.230042,476.364014 
	C394.566498,486.108154 395.726562,495.489441 396.886658,504.870758 
	C384.917725,504.905701 372.948822,504.940643 360.518524,504.904388 
z"/>
<path fill="#67696D" opacity="1.000000" stroke="none" 
	d="
M397.359741,504.921906 
	C395.726562,495.489441 394.566498,486.108154 393.281036,476.009766 
	C393.134491,474.577179 393.113312,473.861633 393.553528,473.107422 
	C404.297180,472.995361 414.579437,472.921967 424.861694,472.848572 
	C423.561096,483.233826 422.260498,493.619080 420.934021,504.413513 
	C413.216339,504.872772 405.524567,504.922913 397.359741,504.921906 
z"/>
<path fill="#743827" opacity="1.000000" stroke="none" 
	d="
M152.956818,137.626099 
	C167.100204,138.614197 181.253052,140.059891 195.739182,141.738754 
	C193.986969,147.209717 191.901443,152.447479 189.061584,157.863754 
	C176.585236,158.022919 164.863220,158.003586 153.141220,157.984253 
	C153.082901,151.350739 153.024582,144.717224 152.956818,137.626099 
z"/>
<path fill="#6A3425" opacity="1.000000" stroke="none" 
	d="
M153.083740,158.451355 
	C164.863220,158.003586 176.585236,158.022919 188.794739,158.068726 
	C181.283279,172.888428 168.840546,183.169922 154.860229,191.855087 
	C154.574402,192.032623 153.623428,191.139465 152.974579,190.410629 
	C152.986359,179.689774 153.006317,169.304108 153.083740,158.451355 
z"/>
<path fill="#6A3425" opacity="1.000000" stroke="none" 
	d="
M361.011536,189.603195 
	C360.995544,190.723984 360.957306,191.372131 360.605347,192.242371 
	C358.203522,190.952789 356.115356,189.441116 353.870605,187.635757 
	C344.531006,178.442108 335.347961,169.542130 326.164948,160.642151 
	C325.128571,158.992188 324.092224,157.342224 323.035614,155.364532 
	C335.416565,156.344467 347.817780,157.652130 360.635315,159.053268 
	C361.030853,169.141357 361.010071,179.135956 361.011536,189.603195 
z"/>
<path fill="#FFD8FF" opacity="1.000000" stroke="none" 
	d="
M289.166626,41.997787 
	C288.662354,32.321999 294.183197,25.190945 302.330627,24.994411 
	C315.138367,24.685461 321.035797,29.791176 320.451111,41.571831 
	C309.667053,41.998692 299.416840,41.998238 289.166626,41.997787 
z"/>
<path fill="#FFD1FF" opacity="1.000000" stroke="none" 
	d="
M289.089355,42.391186 
	C299.416840,41.998238 309.667053,41.998692 320.375336,41.998459 
	C321.459747,48.235561 318.408752,52.365738 313.169678,55.616703 
	C305.865479,54.133060 298.616241,52.306114 291.158569,50.189705 
	C290.304077,47.528355 289.658051,45.156467 289.089355,42.391186 
z"/>
<path fill="#F7D7CA" opacity="1.000000" stroke="none" 
	d="
M326.018799,160.983459 
	C335.347961,169.542130 344.531006,178.442108 353.862610,188.051971 
	C352.848389,191.500290 352.362640,194.906952 350.419800,196.875458 
	C326.616150,220.993607 302.567139,244.869400 278.688751,268.914276 
	C276.421082,271.197723 274.875702,274.198456 272.530212,276.928802 
	C260.573059,277.006927 249.080734,277.016937 237.588440,277.041534 
	C234.424973,277.048309 231.261154,277.087494 228.101364,277.210815 
	C228.041092,277.213135 228.028763,278.444275 228.044434,279.471313 
	C228.974243,284.254974 230.571899,288.077209 234.824875,290.528473 
	C236.024689,291.220001 236.308807,293.500305 236.896942,295.361328 
	C238.223663,298.015198 239.666367,300.359650 241.080231,303.104248 
	C240.744705,304.761292 240.828400,306.371063 240.065247,307.215485 
	C236.323761,311.355499 232.475174,315.415680 228.439011,319.267914 
	C223.683121,323.807129 218.695801,328.103882 213.808807,332.505768 
	C201.807541,324.781555 192.129395,314.582947 183.006516,303.360107 
	C185.814590,301.312408 189.218918,300.088806 191.558411,297.784210 
	C210.388962,279.234467 229.009766,260.471924 247.728790,241.808624 
	C249.113861,240.427658 250.764557,239.313110 252.640808,238.471344 
	C252.993347,240.912003 252.996857,242.955994 253.001053,245.464432 
	C253.000565,249.419235 252.545197,252.996170 253.187164,256.363953 
	C253.515060,258.084076 255.810501,259.429138 257.216644,260.943695 
	C258.478210,259.451080 260.590363,258.082275 260.829346,256.440826 
	C261.374329,252.697403 261.001282,248.820328 261.003723,244.533844 
	C260.337433,239.047974 259.668701,234.025818 258.999969,229.003662 
	C269.756104,218.746231 280.612488,208.589905 291.164978,198.127121 
	C292.831543,196.474701 293.125275,193.437698 294.330200,190.579956 
	C298.831757,190.624451 303.050262,191.402557 307.285187,191.505295 
	C309.058380,191.548279 310.866302,190.158707 312.658447,189.420441 
	C311.843536,187.670288 311.240265,185.766342 310.126251,184.233597 
	C309.552246,183.443802 308.069336,183.314575 306.997131,182.886871 
	C311.169220,178.586807 315.467987,174.400406 319.465607,169.943832 
	C321.845917,167.290237 323.752838,164.212051 326.018799,160.983459 
M290.780365,226.593658 
	C293.729401,229.611786 297.294220,229.751846 300.865295,228.281006 
	C304.695374,226.703461 305.221893,223.249725 305.050659,219.545181 
	C304.928253,216.897766 305.197449,214.222427 304.943420,211.593216 
	C304.556305,207.586136 302.143341,205.380402 298.134247,204.998077 
	C294.109558,204.614243 290.042755,205.732437 289.548401,209.878891 
	C288.921356,215.138824 289.935547,220.594452 290.780365,226.593658 
z"/>
<path fill="#613023" opacity="1.000000" stroke="none" 
	d="
M208.973969,220.636292 
	C208.973557,217.868851 208.931000,215.549103 208.982910,213.231461 
	C209.109375,207.585999 211.796921,204.902756 217.187180,204.976257 
	C222.265198,205.045517 224.882721,207.736938 225.016159,213.112244 
	C225.077789,215.595139 225.063751,218.081497 225.019699,220.565125 
	C224.921768,226.086670 222.462265,228.833679 217.506790,229.022461 
	C212.119568,229.227692 209.685287,226.963028 208.973969,220.636292 
z"/>
<path fill="#7E5E58" opacity="1.000000" stroke="none" 
	d="
M306.581116,182.900604 
	C308.069336,183.314575 309.552246,183.443802 310.126251,184.233597 
	C311.240265,185.766342 311.843536,187.670288 312.658447,189.420441 
	C310.866302,190.158707 309.058380,191.548279 307.285187,191.505295 
	C303.050262,191.402557 298.831757,190.624451 294.218933,190.221207 
	C291.704834,190.680420 289.506165,190.808228 287.469574,191.450241 
	C284.672882,192.331848 282.245728,192.070465 281.306580,189.165512 
	C280.217896,185.798141 282.600922,183.971832 285.486755,183.752945 
	C292.361176,183.231476 299.270081,183.164734 306.581116,182.900604 
z"/>
<path fill="#7E5E58" opacity="1.000000" stroke="none" 
	d="
M231.757462,185.255280 
	C233.528717,190.493790 231.764160,192.056198 226.898010,191.635941 
	C220.393799,191.074203 213.785751,191.160889 207.264954,191.601120 
	C204.414764,191.793518 201.787292,191.899323 201.416229,188.944733 
	C201.225174,187.423508 203.227829,184.577957 204.808411,184.056671 
	C213.726685,181.115417 222.731018,180.832901 231.757462,185.255280 
z"/>
<path fill="#F4CDC0" opacity="1.000000" stroke="none" 
	d="
M153.002533,225.910690 
	C153.002441,229.025650 153.002441,231.656204 153.002441,234.362320 
	C147.413712,233.347916 143.225861,227.024673 143.005905,219.918030 
	C142.801743,213.322495 146.596603,207.581192 153.002640,206.124176 
	C153.002640,212.681839 153.002640,219.054047 153.002533,225.910690 
z"/>
<path fill="#F4CDC0" opacity="1.000000" stroke="none" 
	d="
M258.601990,229.002594 
	C259.668701,234.025818 260.337433,239.047974 260.559448,244.528519 
	C257.741913,244.991272 255.371140,244.995636 253.000366,245.000000 
	C252.996857,242.955994 252.993347,240.912003 252.982758,238.429504 
	C253.313248,234.177246 251.481537,229.101791 258.601990,229.002594 
z"/>
<path fill="#6A3425" opacity="1.000000" stroke="none" 
	d="
M292.899628,337.989563 
	C295.774567,335.930939 298.649475,333.872345 301.810913,331.696533 
	C308.551849,339.085846 315.118683,346.499237 321.435211,354.120056 
	C331.669983,366.468170 341.727112,378.963348 351.885284,391.375153 
	C358.170135,399.054352 364.540375,406.664124 370.766205,414.390564 
	C371.519501,415.325500 371.609985,416.794495 371.674805,418.391602 
	C360.702087,407.900482 347.756470,401.264496 333.019592,397.923035 
	C333.005371,397.957062 333.075409,397.979401 333.024323,397.706512 
	C332.617645,397.362579 332.262054,397.291534 331.496521,397.110687 
	C329.662476,396.793365 328.232239,396.620880 326.815369,396.372192 
	C320.997833,395.351135 315.184326,394.306885 308.944061,393.205750 
	C307.374817,393.081665 306.230835,393.023041 305.049988,392.507263 
	C304.953705,388.365326 304.894379,384.680511 304.906555,380.532349 
	C304.978119,373.811310 304.978119,367.553650 304.978119,360.903870 
	C301.343750,360.903870 298.216583,360.903870 295.037659,360.475647 
	C294.290497,352.694824 293.595062,345.342194 292.899628,337.989563 
z"/>
<path fill="#EAEBEB" opacity="1.000000" stroke="none" 
	d="
M424.885651,472.430542 
	C414.579437,472.921967 404.297180,472.995361 393.529327,472.673492 
	C393.689087,463.899750 394.334381,455.521271 394.979675,447.142792 
	C395.934174,441.387329 397.066589,435.654541 397.802612,429.871277 
	C398.989044,420.548798 399.914215,411.193085 401.021759,401.435120 
	C406.048737,401.020142 411.003662,401.021484 416.416809,401.032501 
	C418.422974,414.445038 419.970917,427.847900 421.703552,441.626038 
	C422.895355,452.005066 423.902466,462.008789 424.885651,472.430542 
z"/>
<path fill="#FFDDFF" opacity="1.000000" stroke="none" 
	d="
M333.033813,397.889008 
	C347.756470,401.264496 360.702087,407.900482 371.675690,418.758575 
	C378.015930,425.914490 384.022369,433.079132 389.703735,440.755920 
	C387.594818,441.511688 385.812225,441.954529 384.026947,441.965851 
	C373.742249,442.031189 363.456879,441.994446 352.964111,441.703369 
	C350.663300,437.225006 348.570099,433.035553 346.375549,428.486755 
	C342.829834,420.781433 339.319122,413.465393 335.976593,406.073334 
	C334.785858,403.440094 334.002899,400.622467 333.033813,397.889008 
z"/>
<path fill="#FFD4FF" opacity="1.000000" stroke="none" 
	d="
M353.171753,441.992310 
	C363.456879,441.994446 373.742249,442.031189 384.026947,441.965851 
	C385.812225,441.954529 387.594818,441.511688 389.774475,441.100098 
	C391.561798,442.917847 392.953278,444.903625 394.662231,447.016113 
	C394.334381,455.521271 393.689087,463.899750 393.067932,472.712158 
	C393.113312,473.861633 393.134491,474.577179 393.104675,475.646973 
	C384.036224,476.000427 375.018707,475.999634 365.425842,475.615021 
	C363.816101,470.824860 362.781708,466.418488 361.712097,461.667175 
	C360.541779,458.852875 359.406708,456.383545 358.138184,453.578339 
	C356.393738,449.492432 354.782745,445.742371 353.171753,441.992310 
z"/>
<path fill="#F6D3C6" opacity="1.000000" stroke="none" 
	d="
M272.995026,276.866211 
	C274.875702,274.198456 276.421082,271.197723 278.688751,268.914276 
	C302.567139,244.869400 326.616150,220.993607 350.419800,196.875458 
	C352.362640,194.906952 352.848389,191.500290 354.019165,188.345642 
	C356.115356,189.441116 358.203522,190.952789 360.584839,192.566620 
	C360.919434,196.797379 360.960846,200.925980 361.002930,205.518692 
	C361.002014,210.813217 360.528412,215.701187 361.108948,220.460587 
	C361.988464,227.671097 358.871155,232.718582 354.052612,237.518860 
	C319.005798,272.433044 284.054657,307.443329 249.079437,342.429352 
	C247.786240,343.722961 246.556335,345.079865 244.757965,346.694489 
	C237.806717,344.655334 231.394455,342.328949 224.992722,340.001495 
	C225.003250,340.000427 225.004883,340.018524 224.911682,339.852905 
	C224.534439,339.795868 224.250381,339.904480 223.684982,339.885010 
	C222.631546,339.505524 221.859467,339.254120 221.087387,339.002716 
	C218.805588,336.995514 216.523788,334.988312 214.025391,332.743439 
	C218.695801,328.103882 223.683121,323.807129 228.439011,319.267914 
	C232.475174,315.415680 236.323761,311.355499 240.065247,307.215485 
	C240.828400,306.371063 240.744705,304.761292 241.394836,303.260925 
	C252.419983,310.618011 261.857544,311.212433 270.460907,304.135437 
	C273.547516,301.596436 277.750458,299.162231 277.039368,293.564697 
	C281.250000,288.458771 286.135345,284.180115 287.438049,277.533752 
	C282.384460,277.216553 277.689758,277.041382 272.995026,276.866211 
z"/>
<path fill="#F2BEAB" opacity="1.000000" stroke="none" 
	d="
M224.982193,340.002563 
	C231.394455,342.328949 237.806717,344.655334 244.609467,346.992065 
	C251.641434,347.507660 258.626770,349.549927 264.844025,348.158905 
	C274.241913,346.056305 283.104431,341.560852 292.547028,338.035889 
	C293.595062,345.342194 294.290497,352.694824 294.565369,360.506226 
	C277.139557,360.919098 260.134338,360.873199 243.049103,360.503448 
	C239.244186,356.212006 235.456879,352.300598 231.816498,348.256897 
	C229.428528,345.604370 227.252899,342.760681 224.982193,340.002563 
z"/>
<path fill="#FFE0FF" opacity="1.000000" stroke="none" 
	d="
M305.086884,392.964386 
	C306.230835,393.023041 307.374817,393.081665 308.815857,393.641479 
	C309.018951,403.427521 308.924927,412.712372 308.374146,421.998108 
	C273.667938,421.998383 239.418533,421.997803 205.104630,421.532776 
	C204.907440,411.802216 204.774734,402.536133 204.642044,393.270050 
	C205.782242,393.192627 206.922440,393.115234 208.963135,393.012146 
	C241.604721,392.979126 273.345795,392.971771 305.086884,392.964386 
z"/>
<path fill="#FFE0FF" opacity="1.000000" stroke="none" 
	d="
M243.129089,360.827301 
	C260.134338,360.873199 277.139557,360.919098 294.617126,360.934448 
	C298.216583,360.903870 301.343750,360.903870 304.978119,360.903870 
	C304.978119,367.553650 304.978119,373.811310 304.448608,380.533600 
	C272.335358,380.997314 240.751602,380.996460 209.167831,380.995605 
	C209.167831,374.526428 209.167831,368.057251 209.167831,360.999725 
	C212.199829,360.999725 215.134979,360.999725 218.996674,361.007080 
	C227.658493,360.952087 235.393799,360.889709 243.129089,360.827301 
z"/>
<path fill="#FFD4FF" opacity="1.000000" stroke="none" 
	d="
M209.093216,381.450806 
	C240.751602,380.996460 272.335358,380.997314 304.377075,380.996948 
	C304.894379,384.680511 304.953705,388.365326 305.049988,392.507263 
	C273.345795,392.971771 241.604721,392.979126 209.389709,392.976013 
	C208.950073,389.279053 208.984344,385.592499 209.093216,381.450806 
z"/>
<path fill="#44A2CF" opacity="1.000000" stroke="none" 
	d="
M204.282013,393.188965 
	C204.774734,402.536133 204.907440,411.802216 205.039886,421.983887 
	C204.971344,425.937012 204.903076,428.974548 204.377487,432.008209 
	C191.311752,432.005981 178.703339,432.007690 166.136139,431.653992 
	C171.492111,419.938660 176.806870,408.578766 182.121628,397.218872 
	C186.821167,396.140747 191.520706,395.062592 196.617950,393.903259 
	C199.317749,393.583984 201.619873,393.345917 204.282013,393.188965 
z"/>
<path fill="#F8DBCE" opacity="1.000000" stroke="none" 
	d="
M243.049103,360.503448 
	C235.393799,360.889709 227.658493,360.952087 219.455292,360.993408 
	C219.624695,353.926056 220.262024,346.879761 220.993378,339.418091 
	C221.859467,339.254120 222.631546,339.505524 223.944794,339.891418 
	C224.658936,340.023407 224.831909,340.020966 225.004883,340.018524 
	C225.004883,340.018524 225.003250,340.000427 224.992722,340.001526 
	C227.252899,342.760681 229.428528,345.604370 231.816498,348.256897 
	C235.456879,352.300598 239.244186,356.212006 243.049103,360.503448 
z"/>
<path fill="#2392C7" opacity="1.000000" stroke="none" 
	d="
M364.129913,482.031830 
	C364.122925,484.730957 364.115967,487.430115 363.989441,490.566040 
	C361.254181,490.668579 358.638733,490.044495 356.022797,490.042358 
	C289.947845,489.988556 223.872849,489.991272 157.797882,490.036743 
	C155.511383,490.038300 153.225235,490.581512 150.534149,490.937439 
	C149.777191,488.604767 149.425049,486.206879 149.500351,483.347565 
	C152.967529,482.257019 156.006363,481.084045 159.047150,481.078979 
	C222.458603,480.972748 285.870331,480.975769 349.281860,481.043365 
	C354.231567,481.048615 359.180573,481.687469 364.129913,482.031830 
z"/>
<path fill="#FFDDFF" opacity="1.000000" stroke="none" 
	d="
M181.729828,397.171295 
	C176.806870,408.578766 171.492111,419.938660 165.939606,431.891846 
	C165.151398,433.328003 164.600937,434.170898 163.703705,434.869720 
	C154.594101,434.816895 145.824234,435.130463 137.072998,434.854126 
	C134.673508,434.778381 132.329819,432.935822 129.960526,431.904053 
	C134.923523,426.490326 139.886505,421.076569 144.983047,415.352386 
	C153.618515,410.336975 162.120407,405.631958 170.891495,400.722595 
	C174.553116,399.386688 177.945572,398.255219 181.729828,397.171295 
z"/>
<path fill="#FFD6FF" opacity="1.000000" stroke="none" 
	d="
M129.655563,432.062988 
	C132.329819,432.935822 134.673508,434.778381 137.072998,434.854126 
	C145.824234,435.130463 154.594101,434.816895 163.668030,435.230865 
	C161.687775,440.825928 159.396469,445.915802 156.883545,451.281799 
	C155.190109,455.042480 153.718262,458.527069 152.091476,462.361694 
	C151.227188,465.140167 150.517822,467.568542 149.808456,469.996948 
	C144.055878,469.664642 138.305984,469.272430 132.550034,469.015625 
	C125.809517,468.714874 119.063728,468.532043 112.032196,467.955078 
	C115.544579,458.860443 119.344994,450.108795 123.266907,441.054077 
	C125.375801,437.907959 127.363197,435.064941 129.655563,432.062988 
z"/>
<path fill="#2A95C8" opacity="1.000000" stroke="none" 
	d="
M149.845001,470.413849 
	C150.517822,467.568542 151.227188,465.140167 152.542847,462.359314 
	C222.681870,462.008636 292.214600,462.010376 361.747345,462.012146 
	C362.781708,466.418488 363.816101,470.824860 364.961792,475.614502 
	C364.975250,477.858856 364.877441,479.719910 364.454773,481.806396 
	C359.180573,481.687469 354.231567,481.048615 349.281860,481.043365 
	C285.870331,480.975769 222.458603,480.972748 159.047150,481.078979 
	C156.006363,481.084045 152.967529,482.257019 149.555130,482.945862 
	C149.415497,478.947327 149.648529,474.889069 149.845001,470.413849 
z"/>
<path fill="#EAEBEB" opacity="1.000000" stroke="none" 
	d="
M287.796875,277.675812 
	C286.135345,284.180115 281.250000,288.458771 276.713409,293.708740 
	C266.599213,300.716370 256.348999,303.454895 245.032532,298.342285 
	C242.400940,297.153381 239.688278,296.143951 237.012924,295.051910 
	C236.308807,293.500305 236.024689,291.220001 234.824875,290.528473 
	C230.571899,288.077209 228.974243,284.254974 228.473541,279.390533 
	C229.841507,278.944244 230.883820,278.742340 231.812149,278.981995 
	C250.602753,283.833038 269.227905,282.050110 287.796875,277.675812 
z"/>
<path fill="#613023" opacity="1.000000" stroke="none" 
	d="
M290.511200,226.279663 
	C289.935547,220.594452 288.921356,215.138824 289.548401,209.878891 
	C290.042755,205.732437 294.109558,204.614243 298.134247,204.998077 
	C302.143341,205.380402 304.556305,207.586136 304.943420,211.593216 
	C305.197449,214.222427 304.928253,216.897766 305.050659,219.545181 
	C305.221893,223.249725 304.695374,226.703461 300.865295,228.281006 
	C297.294220,229.751846 293.729401,229.611786 290.511200,226.279663 
z"/>
<path fill="#D55057" opacity="1.000000" stroke="none" 
	d="
M236.896942,295.361328 
	C239.688278,296.143951 242.400940,297.153381 245.032532,298.342285 
	C256.348999,303.454895 266.599213,300.716370 276.687866,294.052612 
	C277.750458,299.162231 273.547516,301.596436 270.460907,304.135437 
	C261.857544,311.212433 252.419983,310.618011 241.423676,302.860840 
	C239.666367,300.359650 238.223663,298.015198 236.896942,295.361328 
z"/>
<path fill="#D55057" opacity="1.000000" stroke="none" 
	d="
M287.438049,277.533752 
	C269.227905,282.050110 250.602753,283.833038 231.812149,278.981995 
	C230.883820,278.742340 229.841507,278.944244 228.423157,279.021301 
	C228.028763,278.444275 228.041092,277.213135 228.101364,277.210815 
	C231.261154,277.087494 234.424973,277.048309 237.588440,277.041534 
	C249.080734,277.016937 260.573059,277.006927 272.530212,276.928802 
	C277.689758,277.041382 282.384460,277.216553 287.438049,277.533752 
z"/>
<path fill="#F2BEAB" opacity="1.000000" stroke="none" 
	d="
M253.001053,245.464432 
	C255.371140,244.995636 257.741913,244.991272 260.556946,244.992233 
	C261.001282,248.820328 261.374329,252.697403 260.829346,256.440826 
	C260.590363,258.082275 258.478210,259.451080 257.216644,260.943695 
	C255.810501,259.429138 253.515060,258.084076 253.187164,256.363953 
	C252.545197,252.996170 253.000565,249.419235 253.001053,245.464432 
z"/>
<path fill="#44A2CF" opacity="1.000000" stroke="none" 
	d="
M308.830902,421.997223 
	C308.924927,412.712372 309.018951,403.427521 309.241150,393.706909 
	C315.184326,394.306885 320.997833,395.351135 326.815369,396.372192 
	C328.232239,396.620880 329.662476,396.793365 331.630402,397.341675 
	C332.474609,397.781433 332.775024,397.880432 333.075409,397.979401 
	C333.075409,397.979401 333.005371,397.957062 333.019592,397.923035 
	C334.002899,400.622467 334.785858,403.440094 335.976593,406.073334 
	C339.319122,413.465393 342.829834,420.781433 345.867188,428.530029 
	C333.363770,428.959259 321.267303,428.985870 309.100189,428.578247 
	C308.963318,426.095062 308.897125,424.046143 308.830902,421.997223 
z"/>
<path fill="#FFDDFF" opacity="1.000000" stroke="none" 
	d="
M333.024323,397.706512 
	C332.775024,397.880432 332.474609,397.781433 332.040344,397.451447 
	C332.262054,397.291534 332.617645,397.362579 333.024323,397.706512 
z"/>
<path fill="#379CCC" opacity="1.000000" stroke="none" 
	d="
M309.170868,429.012482 
	C321.267303,428.985870 333.363770,428.959259 345.968567,428.889374 
	C348.570099,433.035553 350.663300,437.225006 352.964111,441.703369 
	C354.782745,445.742371 356.393738,449.492432 357.648987,453.602966 
	C342.717285,453.975220 328.141205,454.020477 313.565643,453.949371 
	C312.027435,453.941864 310.492615,453.250214 308.968750,452.415894 
	C309.044464,444.308044 309.107666,436.660278 309.170868,429.012482 
z"/>
<path fill="#3098CA" opacity="1.000000" stroke="none" 
	d="
M308.956207,452.875946 
	C310.492615,453.250214 312.027435,453.941864 313.565643,453.949371 
	C328.141205,454.020477 342.717285,453.975220 357.782440,453.938843 
	C359.406708,456.383545 360.541779,458.852875 361.712097,461.667175 
	C292.214600,462.010376 222.681870,462.008636 152.697784,462.009247 
	C153.718262,458.527069 155.190109,455.042480 157.344391,451.280579 
	C173.629608,451.004822 189.232391,451.006470 204.934082,451.429077 
	C205.996826,452.233612 206.960495,452.951752 207.924515,452.952240 
	C241.601730,452.968658 275.278961,452.917511 308.956207,452.875946 
z"/>
<path fill="#F2BEAB" opacity="1.000000" stroke="none" 
	d="
M224.911682,339.852905 
	C224.831909,340.020966 224.658936,340.023407 224.226151,340.019470 
	C224.250381,339.904480 224.534439,339.795868 224.911682,339.852905 
z"/>
<path fill="#FFD8FF" opacity="1.000000" stroke="none" 
	d="
M308.968750,452.415894 
	C275.278961,452.917511 241.601730,452.968658 207.924515,452.952240 
	C206.960495,452.951752 205.996826,452.233612 205.003906,450.964783 
	C204.928146,444.057007 204.881470,438.034576 204.834793,432.012115 
	C204.903076,428.974548 204.971344,425.937012 205.104370,422.448334 
	C239.418533,421.997803 273.667938,421.998383 308.374146,421.998108 
	C308.897125,424.046143 308.963318,426.095062 309.100189,428.578247 
	C309.107666,436.660278 309.044464,444.308044 308.968750,452.415894 
z"/>
<path fill="#379CCC" opacity="1.000000" stroke="none" 
	d="
M204.377487,432.008209 
	C204.881470,438.034576 204.928146,444.057007 204.904999,450.543762 
	C189.232391,451.006470 173.629608,451.004822 157.565979,451.004456 
	C159.396469,445.915802 161.687775,440.825928 164.014771,435.374939 
	C164.600937,434.170898 165.151398,433.328003 165.898392,432.247253 
	C178.703339,432.007690 191.311752,432.005981 204.377487,432.008209 
z"/>
</svg>